<svg
  viewBox="0 0 800 300"
  xmlns="http://www.w3.org/2000/svg"
  class="logo"
>
  <rect width="800" height="300" fill="#FFFFFF" />
  <g id="wordmark">
    <path
      d="M 100 180 Q 100 150 130 140 L 170 140 Q 190 140 190 160 Q 190 175 175 180 L 130 185 Q 100 190 100 220 Q 100 245 130 250 L 175 250 Q 200 250 200 230"
      fill="none"
      stroke="#1A1A2E"
      stroke-width="12"
      stroke-linecap="round"
      stroke-linejoin="round"
    />
    <line
      x1="220"
      y1="145"
      x2="290"
      y2="145"
      stroke="#1A1A2E"
      stroke-width="12"
      stroke-linecap="round"
    />
    <line
      x1="255"
      y1="145"
      x2="255"
      y2="250"
      stroke="#1A1A2E"
      stroke-width="12"
      stroke-linecap="round"
    />
    <path
      d="M 310 250 L 310 145 L 360 145 Q 385 145 385 170 Q 385 190 365 195 L 390 250"
      fill="none"
      stroke="#1A1A2E"
      stroke-width="12"
      stroke-linecap="round"
      stroke-linejoin="round"
    />
    <path
      d="M 410 250 L 445 145 L 480 250 M 425 210 L 465 210"
      fill="none"
      stroke="#1A1A2E"
      stroke-width="12"
      stroke-linecap="round"
      stroke-linejoin="round"
    />
    <path
      d="M 500 145 L 540 250 L 580 145"
      fill="none"
      stroke="#1A1A2E"
      stroke-width="12"
      stroke-linecap="round"
      stroke-linejoin="round"
    />
    <circle
      cx="630"
      cy="197.5"
      r="52.5"
      fill="none"
      stroke="#1A1A2E"
      stroke-width="12"
    />
  </g>
  <text
    x="100"
    y="290"
    font-family="'Inter', 'Helvetica Neue', Arial, sans-serif"
    font-size="28"
    fill="#A0001E"
    letter-spacing="3"
    font-weight="300"
  >
    STRATEGY × VELOCITY
  </text>
</svg>
